<mxfile host="app.diagrams.net" modified="2021-08-28T09:20:26.674Z" agent="5.0 (Windows NT 10.0; Win64; x64) AppleWebKit/537.36 (KHTML, like Gecko) Chrome/92.0.4515.159 Safari/537.36" etag="b-ZI554YXmxopIw_hvLk" version="15.0.2" type="github">
  <diagram id="R2lEEEUBdFMjLlhIrx00" name="Page-1">
    <mxGraphModel dx="1673" dy="979" grid="1" gridSize="10" guides="1" tooltips="1" connect="1" arrows="1" fold="1" page="1" pageScale="1" pageWidth="1169" pageHeight="827" background="none" math="0" shadow="0" extFonts="Permanent Marker^https://fonts.googleapis.com/css?family=Permanent+Marker">
      <root>
        <mxCell id="0" />
        <mxCell id="1" parent="0" />
        <mxCell id="FZU2S8sLRyFF7RPmJR6h-1" value="&lt;font style=&quot;font-size: 18px&quot;&gt;DEPARTMENT&lt;/font&gt;" style="rounded=0;whiteSpace=wrap;html=1;" vertex="1" parent="1">
          <mxGeometry x="270" y="490" width="135" height="60" as="geometry" />
        </mxCell>
        <mxCell id="FZU2S8sLRyFF7RPmJR6h-2" value="&lt;font style=&quot;font-size: 18px&quot;&gt;&lt;u&gt;Name&lt;/u&gt;&lt;/font&gt;" style="ellipse;whiteSpace=wrap;html=1;" vertex="1" parent="1">
          <mxGeometry x="85" y="540" width="120" height="80" as="geometry" />
        </mxCell>
        <mxCell id="FZU2S8sLRyFF7RPmJR6h-5" value="" style="endArrow=none;html=1;exitX=1;exitY=0.5;exitDx=0;exitDy=0;entryX=0.5;entryY=1;entryDx=0;entryDy=0;" edge="1" parent="1" source="FZU2S8sLRyFF7RPmJR6h-2" target="FZU2S8sLRyFF7RPmJR6h-1">
          <mxGeometry width="50" height="50" relative="1" as="geometry">
            <mxPoint x="160" y="-60" as="sourcePoint" />
            <mxPoint x="418" y="720" as="targetPoint" />
          </mxGeometry>
        </mxCell>
        <mxCell id="FZU2S8sLRyFF7RPmJR6h-6" value="&lt;font style=&quot;font-size: 18px&quot;&gt;Description&lt;/font&gt;" style="ellipse;whiteSpace=wrap;html=1;" vertex="1" parent="1">
          <mxGeometry x="195" y="620" width="120" height="80" as="geometry" />
        </mxCell>
        <mxCell id="FZU2S8sLRyFF7RPmJR6h-7" value="" style="endArrow=none;html=1;exitX=0.5;exitY=0;exitDx=0;exitDy=0;entryX=0.5;entryY=1;entryDx=0;entryDy=0;" edge="1" parent="1" source="FZU2S8sLRyFF7RPmJR6h-6" target="FZU2S8sLRyFF7RPmJR6h-1">
          <mxGeometry width="50" height="50" relative="1" as="geometry">
            <mxPoint x="160" y="-60" as="sourcePoint" />
            <mxPoint x="330" y="630" as="targetPoint" />
          </mxGeometry>
        </mxCell>
        <mxCell id="FZU2S8sLRyFF7RPmJR6h-11" value="&lt;font style=&quot;font-size: 18px&quot;&gt;Location&lt;/font&gt;" style="ellipse;shape=doubleEllipse;whiteSpace=wrap;html=1;" vertex="1" parent="1">
          <mxGeometry x="335" y="620" width="120" height="90" as="geometry" />
        </mxCell>
        <mxCell id="FZU2S8sLRyFF7RPmJR6h-12" value="" style="endArrow=none;html=1;exitX=0.5;exitY=1;exitDx=0;exitDy=0;entryX=0.5;entryY=0;entryDx=0;entryDy=0;" edge="1" parent="1" source="FZU2S8sLRyFF7RPmJR6h-1" target="FZU2S8sLRyFF7RPmJR6h-11">
          <mxGeometry width="50" height="50" relative="1" as="geometry">
            <mxPoint x="240" y="-140" as="sourcePoint" />
            <mxPoint x="290" y="-190" as="targetPoint" />
          </mxGeometry>
        </mxCell>
        <mxCell id="FZU2S8sLRyFF7RPmJR6h-13" value="&lt;font style=&quot;font-size: 18px&quot;&gt;Number&lt;/font&gt;" style="ellipse;whiteSpace=wrap;html=1;" vertex="1" parent="1">
          <mxGeometry x="450" y="560" width="120" height="80" as="geometry" />
        </mxCell>
        <mxCell id="FZU2S8sLRyFF7RPmJR6h-14" value="" style="endArrow=none;html=1;exitX=0.5;exitY=1;exitDx=0;exitDy=0;entryX=0;entryY=0.5;entryDx=0;entryDy=0;" edge="1" parent="1" source="FZU2S8sLRyFF7RPmJR6h-1" target="FZU2S8sLRyFF7RPmJR6h-13">
          <mxGeometry width="50" height="50" relative="1" as="geometry">
            <mxPoint x="500" y="10" as="sourcePoint" />
            <mxPoint x="550" y="-40" as="targetPoint" />
          </mxGeometry>
        </mxCell>
        <mxCell id="FZU2S8sLRyFF7RPmJR6h-15" value="&lt;font style=&quot;font-size: 18px&quot;&gt;LECTURER&lt;/font&gt;" style="rounded=0;whiteSpace=wrap;html=1;" vertex="1" parent="1">
          <mxGeometry x="243.75" y="194" width="120" height="60" as="geometry" />
        </mxCell>
        <mxCell id="FZU2S8sLRyFF7RPmJR6h-16" value="&lt;font style=&quot;font-size: 18px&quot;&gt;&lt;u&gt;Name&lt;/u&gt;&lt;/font&gt;" style="ellipse;whiteSpace=wrap;html=1;" vertex="1" parent="1">
          <mxGeometry x="306.25" y="84" width="120" height="80" as="geometry" />
        </mxCell>
        <mxCell id="FZU2S8sLRyFF7RPmJR6h-17" value="" style="endArrow=none;html=1;exitX=0.5;exitY=0;exitDx=0;exitDy=0;entryX=0.5;entryY=1;entryDx=0;entryDy=0;" edge="1" parent="1" source="FZU2S8sLRyFF7RPmJR6h-15" target="FZU2S8sLRyFF7RPmJR6h-16">
          <mxGeometry width="50" height="50" relative="1" as="geometry">
            <mxPoint x="360" y="390" as="sourcePoint" />
            <mxPoint x="410" y="340" as="targetPoint" />
          </mxGeometry>
        </mxCell>
        <mxCell id="FZU2S8sLRyFF7RPmJR6h-18" value="&lt;font style=&quot;font-size: 18px&quot;&gt;STUDENT&lt;/font&gt;" style="rounded=0;whiteSpace=wrap;html=1;" vertex="1" parent="1">
          <mxGeometry x="790" y="200" width="120" height="60" as="geometry" />
        </mxCell>
        <mxCell id="FZU2S8sLRyFF7RPmJR6h-19" value="&lt;span style=&quot;font-size: 18px&quot;&gt;&lt;u&gt;Student_number&lt;/u&gt;&lt;/span&gt;" style="ellipse;whiteSpace=wrap;html=1;" vertex="1" parent="1">
          <mxGeometry x="955" y="130" width="165" height="80" as="geometry" />
        </mxCell>
        <mxCell id="FZU2S8sLRyFF7RPmJR6h-20" value="" style="endArrow=none;html=1;entryX=1;entryY=0.5;entryDx=0;entryDy=0;exitX=0;exitY=0.5;exitDx=0;exitDy=0;" edge="1" parent="1" source="FZU2S8sLRyFF7RPmJR6h-19" target="FZU2S8sLRyFF7RPmJR6h-18">
          <mxGeometry width="50" height="50" relative="1" as="geometry">
            <mxPoint x="520" y="260" as="sourcePoint" />
            <mxPoint x="570" y="210" as="targetPoint" />
          </mxGeometry>
        </mxCell>
        <mxCell id="FZU2S8sLRyFF7RPmJR6h-21" value="&lt;font style=&quot;font-size: 18px&quot;&gt;BELONG_TO&lt;/font&gt;" style="rhombus;whiteSpace=wrap;html=1;" vertex="1" parent="1">
          <mxGeometry x="125" y="310" width="160" height="96" as="geometry" />
        </mxCell>
        <mxCell id="FZU2S8sLRyFF7RPmJR6h-22" value="" style="shape=link;html=1;rounded=0;exitX=0.5;exitY=1;exitDx=0;exitDy=0;entryX=0.5;entryY=0;entryDx=0;entryDy=0;" edge="1" parent="1" source="FZU2S8sLRyFF7RPmJR6h-15" target="FZU2S8sLRyFF7RPmJR6h-21">
          <mxGeometry relative="1" as="geometry">
            <mxPoint x="260" y="310" as="sourcePoint" />
            <mxPoint x="420" y="310" as="targetPoint" />
          </mxGeometry>
        </mxCell>
        <mxCell id="FZU2S8sLRyFF7RPmJR6h-23" value="N" style="resizable=0;html=1;align=right;verticalAlign=bottom;" connectable="0" vertex="1" parent="FZU2S8sLRyFF7RPmJR6h-22">
          <mxGeometry x="1" relative="1" as="geometry">
            <mxPoint x="-10" as="offset" />
          </mxGeometry>
        </mxCell>
        <mxCell id="FZU2S8sLRyFF7RPmJR6h-24" value="" style="shape=link;html=1;rounded=0;exitX=0.5;exitY=0;exitDx=0;exitDy=0;entryX=0.5;entryY=1;entryDx=0;entryDy=0;" edge="1" parent="1" source="FZU2S8sLRyFF7RPmJR6h-1" target="FZU2S8sLRyFF7RPmJR6h-21">
          <mxGeometry relative="1" as="geometry">
            <mxPoint x="210" y="230" as="sourcePoint" />
            <mxPoint x="370" y="230" as="targetPoint" />
          </mxGeometry>
        </mxCell>
        <mxCell id="FZU2S8sLRyFF7RPmJR6h-25" value="1" style="resizable=0;html=1;align=right;verticalAlign=bottom;" connectable="0" vertex="1" parent="FZU2S8sLRyFF7RPmJR6h-24">
          <mxGeometry x="1" relative="1" as="geometry">
            <mxPoint y="14" as="offset" />
          </mxGeometry>
        </mxCell>
        <mxCell id="FZU2S8sLRyFF7RPmJR6h-26" value="&lt;font style=&quot;font-size: 18px&quot;&gt;BE_HEAD_OF&lt;/font&gt;" style="rhombus;whiteSpace=wrap;html=1;" vertex="1" parent="1">
          <mxGeometry x="335" y="310" width="195" height="96" as="geometry" />
        </mxCell>
        <mxCell id="FZU2S8sLRyFF7RPmJR6h-27" value="" style="shape=link;html=1;rounded=0;exitX=0.5;exitY=0;exitDx=0;exitDy=0;entryX=0.5;entryY=1;entryDx=0;entryDy=0;" edge="1" parent="1" source="FZU2S8sLRyFF7RPmJR6h-1" target="FZU2S8sLRyFF7RPmJR6h-26">
          <mxGeometry relative="1" as="geometry">
            <mxPoint x="522.5" y="320" as="sourcePoint" />
            <mxPoint x="368" y="390" as="targetPoint" />
          </mxGeometry>
        </mxCell>
        <mxCell id="FZU2S8sLRyFF7RPmJR6h-28" value="1" style="resizable=0;html=1;align=right;verticalAlign=bottom;" connectable="0" vertex="1" parent="FZU2S8sLRyFF7RPmJR6h-27">
          <mxGeometry x="1" relative="1" as="geometry">
            <mxPoint x="17" y="20" as="offset" />
          </mxGeometry>
        </mxCell>
        <mxCell id="FZU2S8sLRyFF7RPmJR6h-29" value="" style="endArrow=none;html=1;rounded=0;exitX=0.5;exitY=1;exitDx=0;exitDy=0;entryX=0.5;entryY=0;entryDx=0;entryDy=0;" edge="1" parent="1" source="FZU2S8sLRyFF7RPmJR6h-15" target="FZU2S8sLRyFF7RPmJR6h-26">
          <mxGeometry relative="1" as="geometry">
            <mxPoint x="320" y="310" as="sourcePoint" />
            <mxPoint x="480" y="310" as="targetPoint" />
          </mxGeometry>
        </mxCell>
        <mxCell id="FZU2S8sLRyFF7RPmJR6h-30" value="1" style="resizable=0;html=1;align=right;verticalAlign=bottom;" connectable="0" vertex="1" parent="FZU2S8sLRyFF7RPmJR6h-29">
          <mxGeometry x="1" relative="1" as="geometry">
            <mxPoint x="10" as="offset" />
          </mxGeometry>
        </mxCell>
        <mxCell id="FZU2S8sLRyFF7RPmJR6h-31" value="&lt;font style=&quot;font-size: 18px&quot;&gt;COURSE_MODULE&lt;/font&gt;" style="rounded=0;whiteSpace=wrap;html=1;" vertex="1" parent="1">
          <mxGeometry x="750" y="480" width="180" height="60" as="geometry" />
        </mxCell>
        <mxCell id="FZU2S8sLRyFF7RPmJR6h-32" value="&lt;font style=&quot;font-size: 18px&quot;&gt;TEACH&lt;/font&gt;" style="rhombus;whiteSpace=wrap;html=1;" vertex="1" parent="1">
          <mxGeometry x="500" y="254" width="160" height="96" as="geometry" />
        </mxCell>
        <mxCell id="FZU2S8sLRyFF7RPmJR6h-35" value="" style="shape=link;html=1;rounded=0;exitX=1;exitY=0.5;exitDx=0;exitDy=0;entryX=0;entryY=0.5;entryDx=0;entryDy=0;" edge="1" parent="1" source="FZU2S8sLRyFF7RPmJR6h-15" target="FZU2S8sLRyFF7RPmJR6h-32">
          <mxGeometry relative="1" as="geometry">
            <mxPoint x="470" y="410" as="sourcePoint" />
            <mxPoint x="630" y="410" as="targetPoint" />
          </mxGeometry>
        </mxCell>
        <mxCell id="FZU2S8sLRyFF7RPmJR6h-36" value="1" style="resizable=0;html=1;align=right;verticalAlign=bottom;" connectable="0" vertex="1" parent="FZU2S8sLRyFF7RPmJR6h-35">
          <mxGeometry x="1" relative="1" as="geometry">
            <mxPoint x="5" y="-8" as="offset" />
          </mxGeometry>
        </mxCell>
        <mxCell id="FZU2S8sLRyFF7RPmJR6h-39" value="&lt;font style=&quot;font-size: 18px&quot;&gt;&lt;u&gt;Module_number&lt;/u&gt;&lt;/font&gt;" style="ellipse;whiteSpace=wrap;html=1;" vertex="1" parent="1">
          <mxGeometry x="965" y="470" width="165" height="80" as="geometry" />
        </mxCell>
        <mxCell id="FZU2S8sLRyFF7RPmJR6h-40" value="" style="endArrow=none;html=1;entryX=1;entryY=0.5;entryDx=0;entryDy=0;exitX=0;exitY=0.5;exitDx=0;exitDy=0;" edge="1" parent="1" source="FZU2S8sLRyFF7RPmJR6h-39" target="FZU2S8sLRyFF7RPmJR6h-31">
          <mxGeometry width="50" height="50" relative="1" as="geometry">
            <mxPoint x="880" y="200" as="sourcePoint" />
            <mxPoint x="800" y="130" as="targetPoint" />
          </mxGeometry>
        </mxCell>
        <mxCell id="FZU2S8sLRyFF7RPmJR6h-41" value="&lt;font style=&quot;font-size: 18px&quot;&gt;OFFER&lt;/font&gt;" style="rhombus;whiteSpace=wrap;html=1;" vertex="1" parent="1">
          <mxGeometry x="505" y="464" width="160" height="96" as="geometry" />
        </mxCell>
        <mxCell id="FZU2S8sLRyFF7RPmJR6h-44" value="" style="shape=link;html=1;rounded=0;exitX=1;exitY=0.5;exitDx=0;exitDy=0;entryX=0;entryY=0.5;entryDx=0;entryDy=0;" edge="1" parent="1" source="FZU2S8sLRyFF7RPmJR6h-1" target="FZU2S8sLRyFF7RPmJR6h-41">
          <mxGeometry relative="1" as="geometry">
            <mxPoint x="415" y="270" as="sourcePoint" />
            <mxPoint x="705" y="590" as="targetPoint" />
          </mxGeometry>
        </mxCell>
        <mxCell id="FZU2S8sLRyFF7RPmJR6h-45" value="1" style="resizable=0;html=1;align=right;verticalAlign=bottom;" connectable="0" vertex="1" parent="FZU2S8sLRyFF7RPmJR6h-44">
          <mxGeometry x="1" relative="1" as="geometry" />
        </mxCell>
        <mxCell id="FZU2S8sLRyFF7RPmJR6h-48" value="&lt;font style=&quot;font-size: 18px&quot;&gt;ATTEND&lt;/font&gt;" style="rhombus;whiteSpace=wrap;html=1;" vertex="1" parent="1">
          <mxGeometry x="760" y="314" width="160" height="96" as="geometry" />
        </mxCell>
        <mxCell id="FZU2S8sLRyFF7RPmJR6h-66" value="" style="shape=link;html=1;rounded=0;exitX=0.481;exitY=0.983;exitDx=0;exitDy=0;exitPerimeter=0;entryX=0.5;entryY=0;entryDx=0;entryDy=0;" edge="1" parent="1" source="FZU2S8sLRyFF7RPmJR6h-18" target="FZU2S8sLRyFF7RPmJR6h-48">
          <mxGeometry relative="1" as="geometry">
            <mxPoint x="685" y="270" as="sourcePoint" />
            <mxPoint x="845" y="270" as="targetPoint" />
          </mxGeometry>
        </mxCell>
        <mxCell id="FZU2S8sLRyFF7RPmJR6h-67" value="N" style="resizable=0;html=1;align=right;verticalAlign=bottom;" connectable="0" vertex="1" parent="FZU2S8sLRyFF7RPmJR6h-66">
          <mxGeometry x="1" relative="1" as="geometry">
            <mxPoint x="20" y="116" as="offset" />
          </mxGeometry>
        </mxCell>
        <mxCell id="FZU2S8sLRyFF7RPmJR6h-68" value="" style="shape=link;html=1;rounded=0;entryX=0.5;entryY=0;entryDx=0;entryDy=0;exitX=0.5;exitY=1;exitDx=0;exitDy=0;" edge="1" parent="1" source="FZU2S8sLRyFF7RPmJR6h-48" target="FZU2S8sLRyFF7RPmJR6h-31">
          <mxGeometry relative="1" as="geometry">
            <mxPoint x="685" y="270" as="sourcePoint" />
            <mxPoint x="845" y="270" as="targetPoint" />
          </mxGeometry>
        </mxCell>
        <mxCell id="FZU2S8sLRyFF7RPmJR6h-69" value="M" style="resizable=0;html=1;align=left;verticalAlign=bottom;" connectable="0" vertex="1" parent="FZU2S8sLRyFF7RPmJR6h-68">
          <mxGeometry x="-1" relative="1" as="geometry">
            <mxPoint x="10" y="-96" as="offset" />
          </mxGeometry>
        </mxCell>
        <mxCell id="FZU2S8sLRyFF7RPmJR6h-73" value="" style="shape=link;html=1;rounded=0;exitX=0;exitY=0.5;exitDx=0;exitDy=0;entryX=1;entryY=0.5;entryDx=0;entryDy=0;" edge="1" parent="1" source="FZU2S8sLRyFF7RPmJR6h-31" target="FZU2S8sLRyFF7RPmJR6h-41">
          <mxGeometry relative="1" as="geometry">
            <mxPoint x="550" y="540" as="sourcePoint" />
            <mxPoint x="710" y="540" as="targetPoint" />
          </mxGeometry>
        </mxCell>
        <mxCell id="FZU2S8sLRyFF7RPmJR6h-74" value="N" style="resizable=0;html=1;align=right;verticalAlign=bottom;" connectable="0" vertex="1" parent="FZU2S8sLRyFF7RPmJR6h-73">
          <mxGeometry x="1" relative="1" as="geometry" />
        </mxCell>
        <mxCell id="FZU2S8sLRyFF7RPmJR6h-77" value="" style="shape=link;html=1;rounded=0;exitX=0;exitY=0;exitDx=0;exitDy=0;entryX=1;entryY=0.5;entryDx=0;entryDy=0;" edge="1" parent="1" source="FZU2S8sLRyFF7RPmJR6h-31" target="FZU2S8sLRyFF7RPmJR6h-32">
          <mxGeometry relative="1" as="geometry">
            <mxPoint x="410" y="360" as="sourcePoint" />
            <mxPoint x="570" y="360" as="targetPoint" />
          </mxGeometry>
        </mxCell>
        <mxCell id="FZU2S8sLRyFF7RPmJR6h-78" value="N" style="resizable=0;html=1;align=right;verticalAlign=bottom;" connectable="0" vertex="1" parent="FZU2S8sLRyFF7RPmJR6h-77">
          <mxGeometry x="1" relative="1" as="geometry">
            <mxPoint x="5" as="offset" />
          </mxGeometry>
        </mxCell>
      </root>
    </mxGraphModel>
  </diagram>
</mxfile>
